/vscmnt/brussel_pixiu_data/_data_brussel/112/vsc11236/PredSimResults/SUBJ07mtu3D/worker6.mot
version=1
nRows=5
nColumns=50
inDegrees=yes
endheader
                time	         pelvis_tilt	         pelvis_list	     pelvis_rotation	           pelvis_tx	           pelvis_ty	           pelvis_tz	       hip_flexion_r	     hip_adduction_r	      hip_rotation_r	        knee_angle_r	       ankle_angle_r	         mtp_angle_r	       hip_flexion_l	     hip_adduction_l	      hip_rotation_l	        knee_angle_l	       ankle_angle_l	         mtp_angle_l	    lumbar_extension	      lumbar_bending	     lumbar_rotation	 ercspn_r/activation	 intobl_r/activation	 extobl_r/activation	    abd_r/activation	    add_r/activation	hamstrings_r/activation	bifemsh_r/activation	glut_max_r/activation	iliopsoas_r/activation	rect_fem_r/activation	  vasti_r/activation	gastroc_r/activation	 soleus_r/activation	tib_ant_r/activation	 ercspn_l/activation	 intobl_l/activation	 extobl_l/activation	    abd_l/activation	    add_l/activation	hamstrings_l/activation	bifemsh_l/activation	glut_max_l/activation	iliopsoas_l/activation	rect_fem_l/activation	  vasti_l/activation	gastroc_l/activation	 soleus_l/activation	tib_ant_l/activation	
          0.00000000	         -2.96966740	         -0.02764718	          8.14702465	          0.00000000	          0.85085385	         -0.01335943	         28.89478302	         -2.30576747	         -4.04168596	         -6.76884429	          3.32009225	          0.26613609	        -15.71360322	         -0.04280484	          3.19395283	         -8.78910401	          8.18132018	         27.59789268	        -11.27900384	         -1.53820857	         -1.31869838	          0.12398353	          0.13534402	          0.01000005	          0.01342687	          0.13789524	          0.07048385	          0.11368555	          0.08311954	          0.03128150	          0.01184529	          0.01000001	          0.01000004	          0.01000003	          0.37582187	          0.12729345	          0.01000001	          0.01000001	          0.03272263	          0.01152835	          0.01745139	          0.15062321	          0.01662077	          0.19490587	          0.01184533	          0.01000017	          0.12870620	          0.28065808	          0.01968787	
          0.01107241	         -2.98086605	          0.00648729	          8.15577731	          0.01574804	          0.84940138	         -0.01302660	         28.64318172	         -2.09001971	         -3.68508736	         -8.18898337	          3.02200573	          0.24998303	        -16.12857493	         -0.12409851	          2.85574197	         -9.90657264	          7.22612033	         29.19830587	        -11.17190457	         -1.13467632	         -1.54512512	          0.10466808	          0.12265734	          0.01000000	          0.01265080	          0.11641248	          0.06710102	          0.12276217	          0.12944081	          0.02640814	          0.01000002	          0.01000000	          0.01403194	          0.01184540	          0.41379540	          0.14170284	          0.01000000	          0.01000005	          0.02762475	          0.02541542	          0.01473340	          0.12715756	          0.01403142	          0.16454142	          0.01000003	          0.01000000	          0.10865499	          0.26159212	          0.01662069	
          0.02214482	         -2.98481026	          0.04670395	          8.11514772	          0.03165005	          0.84816268	         -0.01260280	         28.31527179	         -1.92731488	         -3.35309436	         -9.49988518	          2.60773326	          0.24572791	        -16.40510027	         -0.18746018	          2.47523362	        -11.29146975	          6.15138034	         30.73884039	        -11.06015631	         -0.73831922	         -1.76400069	          0.13962213	          0.10354849	          0.01000001	          0.10044561	          0.13734128	          0.06209592	          0.10363812	          0.12280607	          0.02229400	          0.01000001	          0.00999999	          0.01184590	          0.01000000	          0.47061838	          0.15668228	          0.01000000	          0.01000001	          0.02332108	          0.02145598	          0.01243951	          0.10734762	          0.01184547	          0.13890746	          0.01000015	          0.01000003	          0.09172757	          0.23954683	          0.01403134	
          0.03321723	         -2.98290665	          0.10766447	          8.02985470	          0.04751942	          0.84729902	         -0.01208186	         27.99500851	         -1.78583280	         -3.08154473	        -10.81065368	          2.15855810	          0.22694641	        -16.46318401	         -0.21824140	          2.06703422	        -13.05457440	          4.93578788	         32.15937040	        -10.96345853	         -0.36516595	         -1.97446093	          0.14931472	          0.08741662	          0.01000000	          0.14717283	          0.16550501	          0.05360923	          0.08749230	          0.14551346	          0.01882081	          0.01000002	          0.01000001	          0.01000043	          0.01000000	          0.49688950	          0.19203255	          0.01000000	          0.01000001	          0.01968787	          0.02876731	          0.01275390	          0.09062389	          0.01000007	          0.11726702	          0.01000011	          0.01000002	          0.07743728	          0.20510692	          0.01184539	
          0.04428964	         -2.97512969	          0.18227857	          7.90473435	          0.06322525	          0.84693485	         -0.01147301	         27.73645061	         -1.65369789	         -2.85371877	        -12.25915549	          1.92947336	          0.20858201	        -16.23067710	         -0.22454276	          1.63346682	        -15.30151542	          3.60209944	         33.30942209	        -10.88906191	         -0.00865448	         -2.17403799	          0.15765952	          0.07379794	          0.01000000	          0.18519061	          0.19065213	          0.04992280	          0.07386184	          0.16489738	          0.01588871	          0.01000002	          0.02545115	          0.01000002	          0.01000001	          0.49976614	          0.22666949	          0.01000000	          0.01000001	          0.01662069	          0.05180031	          0.01310630	          0.07650556	          0.01000001	          0.09899794	          0.01000005	          0.01000000	          0.06537328	          0.17315320	          0.01000000	
